<?xml version="1.0" encoding="utf-8"?>
<!-- Generator: Adobe Illustrator 21.1.0, SVG Export Plug-In . SVG Version: 6.00 Build 0)  -->
<svg version="1.1" id="Layer_1" xmlns="http://www.w3.org/2000/svg" xmlns:xlink="http://www.w3.org/1999/xlink" x="0px" y="0px"
	 viewBox="0 0 50 50" style="enable-background:new 0 0 50 50;" xml:space="preserve">
<style type="text/css">
	.st0{fill:#C69C6D;}
	.st1{fill:#FFFF71;}
	.st2{fill:#BC5159;}
</style>
<path class="st0" d="M29.3,8.9c-0.9-1.7-1.6-2.7-2-2.5c-9.3,1.9-16.1,8-21,17.4c-0.3,0.4,0.6,1.4,2.1,2.7
	C13.9,18.9,20.5,11.3,29.3,8.9z"/>
<path class="st1" d="M29.3,8.9c-8.7,2.3-15.3,9.9-20.8,17.6c7.6,6.5,32.8,21.7,34.3,19.7C43.7,44.9,33.8,17.5,29.3,8.9z"/>
<ellipse class="st2" cx="23.8" cy="31.8" rx="3" ry="2.7"/>
<ellipse class="st2" cx="30.7" cy="23.9" rx="3" ry="2.7"/>
<ellipse class="st2" cx="21.4" cy="19.2" rx="3" ry="2.7"/>
<ellipse class="st2" cx="35.7" cy="38" rx="3" ry="2.7"/>
</svg>
