<?xml version="1.0" encoding="utf-8"?>
<!-- Generator: Adobe Illustrator 21.1.0, SVG Export Plug-In . SVG Version: 6.00 Build 0)  -->
<svg version="1.1" id="Layer_1" xmlns="http://www.w3.org/2000/svg" xmlns:xlink="http://www.w3.org/1999/xlink" x="0px" y="0px"
	 viewBox="0 0 50 50" style="enable-background:new 0 0 50 50;" xml:space="preserve">
<style type="text/css">
	.st0{fill:#F7CDF5;stroke:#F9BDF3;stroke-miterlimit:10;}
	.st1{fill:#F9BDF3;stroke:#F9B2EF;stroke-miterlimit:10;}
	.st2{fill:#EBD896;stroke:#F9BDF3;stroke-miterlimit:10;}
	.st3{fill:#EBD896;stroke:#EBD896;stroke-width:0.5;stroke-miterlimit:10;}
	.st4{fill:none;stroke:#EBD896;stroke-width:0.5;stroke-miterlimit:10;}
	.st5{fill:#DDC67F;}
	.st6{fill:#E8CE8B;}
	.st7{fill:#D0B078;}
	.st8{fill:#BCBBBB;}
	.st9{fill:#EBD896;}
</style>
<g>
	<path class="st0" d="M26.5,39.2c11.4,0,20.7-8,20.7-17.8H5.8C5.8,31.2,15.1,39.2,26.5,39.2z"/>
	<path class="st1" d="M5.8,21.4c0-4.4,9.3-7.9,20.7-7.9s20.7,3.5,20.7,7.9"/>
	<path class="st2" d="M47.3,21.4c0,4.4-9.3,7.9-20.7,7.9S5.8,25.8,5.8,21.4"/>
	<ellipse class="st3" cx="15.8" cy="21.2" rx="8.9" ry="2.1"/>
	<ellipse class="st4" cx="25.6" cy="22.4" rx="5.9" ry="1"/>
	<ellipse class="st3" cx="29.1" cy="20.2" rx="9.4" ry="2.1"/>
	
		<ellipse transform="matrix(7.963657e-02 -0.9968 0.9968 7.963657e-02 15.1543 57.895)" class="st3" cx="38.9" cy="20.7" rx="1.6" ry="7.4"/>
	<ellipse class="st5" cx="14.7" cy="22.9" rx="1" ry="0.5"/>
	<ellipse class="st5" cx="24.6" cy="26.8" rx="1" ry="0.5"/>
	<ellipse transform="matrix(0.7071 -0.7071 0.7071 0.7071 -8.0617 30.2356)" class="st5" cx="32.5" cy="24.8" rx="0.5" ry="1"/>
	<ellipse transform="matrix(0.3928 -0.9196 0.9196 0.3928 -6.1178 36.4839)" class="st5" cx="24.6" cy="22.9" rx="0.5" ry="1"/>
	<ellipse transform="matrix(0.1762 -0.9843 0.9843 0.1762 10.0786 55.8189)" class="st5" cx="38.4" cy="21.9" rx="1" ry="0.5"/>
	<ellipse class="st5" cx="18.6" cy="26.8" rx="1" ry="0.5"/>
	<ellipse transform="matrix(0.7071 -0.7071 0.7071 0.7071 -12.1674 16.375)" class="st5" cx="13.7" cy="22.9" rx="1" ry="0.5"/>
	<ellipse transform="matrix(0.3928 -0.9196 0.9196 0.3928 -10.3309 34.0515)" class="st5" cx="20.6" cy="24.8" rx="0.5" ry="1"/>
	<ellipse transform="matrix(0.9507 -0.31 0.31 0.9507 -5.6862 9.9672)" class="st5" cx="28.5" cy="22.9" rx="1" ry="0.5"/>
	<ellipse class="st5" cx="36.4" cy="24.8" rx="1" ry="0.5"/>
	<ellipse class="st5" cx="42.3" cy="22.9" rx="1" ry="0.5"/>
	<ellipse class="st5" cx="28.5" cy="26.8" rx="1" ry="0.5"/>
	<ellipse transform="matrix(0.3928 -0.9196 0.9196 0.3928 -12.7284 30.4203)" class="st6" cx="16.7" cy="24.8" rx="0.5" ry="1"/>
	<ellipse transform="matrix(0.7071 -0.7071 0.7071 0.7071 -6.0874 31.0534)" class="st6" cx="34.4" cy="22.9" rx="1" ry="0.5"/>
	<ellipse transform="matrix(0.7071 -0.7071 0.7071 0.7071 -10.1352 21.2812)" class="st6" cx="20.6" cy="22.9" rx="1" ry="0.5"/>
	<ellipse class="st6" cx="27.5" cy="24.8" rx="1" ry="0.5"/>
	<ellipse transform="matrix(0.866 -0.5 0.5 0.866 -7.2813 22.5239)" class="st6" cx="38.4" cy="24.8" rx="0.5" ry="1"/>
	<ellipse transform="matrix(0.7071 -0.7071 0.7071 0.7071 -9.4577 30.8139)" class="st6" cx="32.5" cy="26.8" rx="1" ry="0.5"/>
	<circle class="st7" cx="26.5" cy="20.4" r="2"/>
	<circle class="st7" cx="25.9" cy="23.4" r="0"/>
	<ellipse class="st7" cx="26.5" cy="20.9" rx="3.9" ry="1.5"/>
	<ellipse class="st7" cx="25.6" cy="19.9" rx="1.6" ry="1.5"/>
	<ellipse class="st7" cx="28.2" cy="19.9" rx="2.3" ry="1.5"/>
	<path class="st8" d="M15.4,25L3.1,11.5c-0.2-0.2-0.2-0.5,0-0.7l0.7-0.7c0.2-0.2,0.5-0.2,0.7,0l12.2,13.5c0.2,0.2,0.2,0.5,0,0.7
		L16.1,25C15.9,25.2,15.5,25.2,15.4,25z"/>
	<ellipse transform="matrix(0.8286 -0.5598 0.5598 0.8286 -11.5894 11.7117)" class="st9" cx="13.3" cy="24.8" rx="1.4" ry="0.7"/>
	<ellipse transform="matrix(0.7071 -0.7071 0.7071 0.7071 -3.3038 29.8767)" class="st6" cx="34.4" cy="18.9" rx="1" ry="0.5"/>
	<ellipse class="st5" cx="35" cy="20.1" rx="1" ry="0.5"/>
	<ellipse transform="matrix(0.3928 -0.9196 0.9196 0.3928 6.4864 51.6253)" class="st6" cx="42.3" cy="20.9" rx="0.5" ry="1"/>
	<ellipse class="st5" cx="18.2" cy="21.1" rx="1" ry="0.5"/>
	<ellipse transform="matrix(0.1762 -0.9843 0.9843 0.1762 -7.4939 30.8721)" class="st6" cx="14.7" cy="19.9" rx="0.5" ry="1"/>
	<ellipse transform="matrix(0.2786 -0.9604 0.9604 0.2786 9.281 52.1829)" class="st6" cx="39.4" cy="19.9" rx="1" ry="0.5"/>
</g>
</svg>
