<?xml version="1.0" encoding="utf-8"?>
<!-- Generator: Adobe Illustrator 21.1.0, SVG Export Plug-In . SVG Version: 6.00 Build 0)  -->
<svg version="1.1" id="Layer_1" xmlns="http://www.w3.org/2000/svg" xmlns:xlink="http://www.w3.org/1999/xlink" x="0px" y="0px"
	 viewBox="0 0 100 230" style="enable-background:new 0 0 100 230;" xml:space="preserve">
<style type="text/css">
	.st0{fill:#26140C;stroke:#351E0F;stroke-miterlimit:10;}
	.st1{fill:#FFE0BD;}
	.st2{fill:none;stroke:#000000;stroke-width:0.25;stroke-miterlimit:10;}
	.st3{fill:none;stroke:#000000;stroke-width:0.75;stroke-miterlimit:10;}
	.st4{fill:#FFFFFF;stroke:#000000;stroke-width:0.75;stroke-miterlimit:10;}
	.st5{fill:#855E42;}
	.st6{fill:none;stroke:#FFE0BD;stroke-width:0.75;stroke-miterlimit:10;}
	.st7{fill:none;stroke:#351E0F;stroke-width:0.25;stroke-miterlimit:10;}
	.st8{fill:#666666;}
	.st9{fill:#4D4D4D;stroke:#666666;stroke-width:0.5;stroke-miterlimit:10;}
	.st10{fill:#B3B3B3;}
	.st11{fill:none;stroke:#FFE0BD;stroke-miterlimit:10;}
	.st12{fill:#351E0F;}
	.st13{fill:none;stroke:#351E0F;stroke-width:0.75;stroke-miterlimit:10;}
	.st14{fill:#351E0F;stroke:#351E0F;stroke-width:0.75;stroke-miterlimit:10;}
	.st15{fill:#F7CDF5;stroke:#F9BDF3;stroke-miterlimit:10;}
	.st16{fill:#F9BDF3;stroke:#F9B2EF;stroke-miterlimit:10;}
	.st17{fill:#EBD896;stroke:#F9BDF3;stroke-miterlimit:10;}
	.st18{fill:#EBD896;stroke:#EBD896;stroke-width:0.5;stroke-miterlimit:10;}
	.st19{fill:none;stroke:#EBD896;stroke-width:0.5;stroke-miterlimit:10;}
	.st20{fill:#DDC67F;}
	.st21{fill:#E8CE8B;}
	.st22{fill:#D0B078;}
	.st23{fill:#BCBBBB;}
	.st24{fill:#EBD896;}
</style>
<rect x="25.7" y="62" class="st0" width="58.9" height="33.4"/>
<path class="st1" d="M85.5,46.1c0,18-3.5,32.5-32.5,32.5S20.5,64.1,20.5,46.1S35,13.6,53,13.6S85.5,28.2,85.5,46.1z"/>
<line class="st2" x1="10" y1="54.5" x2="10" y2="54.5"/>
<g>
	<path class="st3" d="M33.2,42.4c3.5-4.2,7-4.2,10.6,0"/>
	<line class="st3" x1="34.3" y1="41.4" x2="33.2" y2="40.3"/>
	<line class="st3" x1="35.3" y1="40.3" x2="34.3" y2="39.3"/>
</g>
<g>
	<path class="st3" d="M72.8,42.4c-3.5-4.2-7-4.2-10.6,0"/>
	<line class="st3" x1="71.7" y1="41.4" x2="72.8" y2="40.3"/>
	<line class="st3" x1="70.7" y1="40.3" x2="71.7" y2="39.3"/>
</g>
<path class="st3" d="M52.5,48.3c-2.9,2.9-2.3,4.7,1.7,5.5"/>
<path class="st4" d="M65.3,62.9H41.6C49.5,71.4,57.4,71.4,65.3,62.9z"/>
<circle class="st5" cx="45.1" cy="58.4" r="0.4"/>
<circle class="st5" cx="75.9" cy="56.7" r="0.4"/>
<line class="st6" x1="46" y1="77.3" x2="46" y2="86.6"/>
<line class="st6" x1="61.8" y1="77.3" x2="61.8" y2="86.6"/>
<rect x="45.5" y="78.2" class="st1" width="16.7" height="10.6"/>
<g>
	<g>
		<path class="st5" d="M48.9,16.6c0.4,0,0.4-0.6,0-0.6C48.5,16,48.5,16.6,48.9,16.6L48.9,16.6z"/>
	</g>
</g>
<path class="st7" d="M12,98"/>
<path class="st1" d="M39,98c-4,0-8,0-12,0v2.8c1.6,1.6,3,3.8,4.3,6.2C34.2,104.4,36.6,101.2,39,98z"/>
<path class="st1" d="M68,98c1.9,3.8,4.7,6.7,7.6,9.6c1.5-3.2,3.3-5.8,5.4-7.6v-2C76.7,98,72.3,98,68,98z"/>
<path class="st8" d="M71.1,129.4c0-0.1,0-0.3,0-0.4c-11.4,0-23.7,0-35.2,0c0,0.1,0,0.3,0,0.4c0,5-0.6,9.8-1.7,14
	c0.9,0.4,1.9,0.6,3,0.6h33.4c0.7,0,1.5-0.1,2.2-0.3C71.8,139.4,71.1,134.5,71.1,129.4z"/>
<path class="st1" d="M72.7,116c-12.9,0-24.8,0-37.7,0h-0.5c1,4,1.5,8.4,1.5,13c11.4,0,23.7,0,35.2,0C71.2,124.4,71.7,120,72.7,116z"
	/>
<path class="st8" d="M68,98c-9.7,0-19.3,0-29,0c-2.4,3.2-4.8,6.4-7.7,9.1c0.8,1.5,1.4,3.2,2,4.9c0.4,1.3,0.8,2.6,1.1,4H35
	c12.9,0,24.8,0,37.7,0c0.3-1.4,0.7-2.7,1.1-4c0.5-1.6,1.1-3,1.8-4.4C72.7,104.7,69.9,101.8,68,98z"/>
<path class="st1" d="M70.7,84.5H37.3c-5.7,0-10.3,5.8-10.3,13V98c18,0,36,0,54,0v-0.5C81,90.3,76.4,84.5,70.7,84.5z"/>
<line class="st9" x1="39.7" y1="84.5" x2="39.3" y2="98.5"/>
<line class="st9" x1="67.3" y1="84.5" x2="67.7" y2="98.5"/>
<g>
	<path class="st8" d="M71.8,177.2c1.5-12.1,3.9-24.6,0.6-36.4l-3.3-0.3H38.7l-3.6,0.3c-3.3,11.8-0.9,24.3,0.6,36.4
		c1.6,13.4,2.1,26.9,2.3,40.4c0,0.1,0,0.3,0,0.4c3.3,0,6.7,0,10,0c0.4-0.9,0.6-1.8,0.9-2.7c1.8-7.2,1.9-14.7,2.2-22.2
		c0.4-12.3,1.1-24.6,2-36.8h1.3c0.9,12.3,1.6,24.5,2,36.8c0.2,7.4,0.4,14.9,2.2,22.2c0.2,0.9,0.5,1.8,0.9,2.7c3.4,0,6.7,0,10,0
		c0-0.1,0-0.3,0-0.4C69.6,204.1,70.1,190.6,71.8,177.2z"/>
</g>
<g>
	<path class="st10" d="M48.8,217c0,1.7,0,3.4,0,5.2c-3.4,0.1-6.8,0.1-10.1,0c-1.7-0.1-3.5-0.1-5-0.9c-0.5-0.3-1.1-0.7-1.1-1.4
		c0-0.7,0.7-1.3,1.4-1.6c4.3-2,9.4-1.6,14.1-1.2"/>
	<g>
		<path class="st10" d="M48.5,217c0,1.3,0.4,3.4-0.5,4.3c-0.9,0.9-2.4,0.5-3.6,0.5c-2.8,0-5.9,0.3-8.7-0.3c-1.9,0-2.3-0.6-1.2-2
			c0.1-1.1,0.6-1.6,1.6-1.7c1.2-0.7,2.9-0.6,4.2-0.7c2.6-0.2,5.2,0.1,7.8,0.3c0.5,0,0.5-0.7,0-0.8c-3.7-0.3-7.5-0.7-11.1,0.2
			c-1.3,0.3-4.7,1-4.8,2.9c-0.1,4.4,14.4,2.8,16.6,2.8c0.2,0,0.4-0.2,0.4-0.4c0-1.7,0-3.4,0-5.2C49.2,216.6,48.5,216.6,48.5,217
			L48.5,217z"/>
	</g>
</g>
<g>
	<path class="st10" d="M58.6,217c0,1.7,0,3.4,0,5.2c3.4,0.1,6.8,0.1,10.1,0c1.7-0.1,3.5-0.1,5-0.9c0.5-0.3,1.1-0.7,1.1-1.4
		c0-0.7-0.7-1.3-1.4-1.6c-4.3-2-9.4-1.6-14.1-1.2"/>
	<g>
		<path class="st10" d="M58.2,217c0,1.7,0,3.4,0,5.2c0,0.2,0.2,0.4,0.4,0.4c4,0.1,8.3,0.4,12.3-0.2c1.4-0.2,4.3-0.7,4.3-2.6
			c0-2-3.5-2.6-4.8-2.9c-3.6-0.8-7.4-0.5-11.1-0.2c-0.5,0-0.5,0.8,0,0.8c2.4-0.2,4.8-0.4,7.2-0.3c1.5,0.1,3.4,0,4.8,0.7
			c1.9,1,3.7,2.9,0.4,3.6c-2.6,0.6-5.4,0.3-8,0.3c-0.9,0-3,0.4-3.8,0c-1.5-0.8-0.9-3.4-0.9-4.8C59,216.6,58.2,216.6,58.2,217
			L58.2,217z"/>
	</g>
</g>
<g>
	<g>
		<path d="M43.7,42.8c0.5,0,0.5-0.8,0-0.8C43.2,42,43.2,42.8,43.7,42.8L43.7,42.8z"/>
	</g>
</g>
<g>
	<g>
		<path d="M34.3,39.6c0.5,0,0.5-0.8,0-0.8C33.8,38.9,33.8,39.6,34.3,39.6L34.3,39.6z"/>
	</g>
</g>
<g>
	<g>
		<path d="M33.2,40.8c0.5,0,0.5-0.8,0-0.8C32.8,40,32.8,40.8,33.2,40.8L33.2,40.8z"/>
	</g>
</g>
<g>
	<g>
		<path d="M33.3,42.7c0.5,0,0.5-0.8,0-0.8C32.8,42,32.8,42.7,33.3,42.7L33.3,42.7z"/>
	</g>
</g>
<g>
	<g>
		<path d="M62.3,42.8c0.5,0,0.5-0.8,0-0.8C61.8,42,61.8,42.8,62.3,42.8L62.3,42.8z"/>
	</g>
</g>
<g>
	<g>
		<path d="M71.7,39.6c0.5,0,0.5-0.8,0-0.8C71.2,38.9,71.2,39.6,71.7,39.6L71.7,39.6z"/>
	</g>
</g>
<g>
	<g>
		<path d="M72.7,40.8c0.5,0,0.5-0.8,0-0.8C72.3,40,72.3,40.8,72.7,40.8L72.7,40.8z"/>
	</g>
</g>
<g>
	<g>
		<path class="st1" d="M49,46.6c1.9,0,1.9-3,0-3C47,43.6,47,46.6,49,46.6L49,46.6z"/>
	</g>
</g>
<g>
	<g>
		<path class="st1" d="M49,46.6c1.9,0,1.9-3,0-3C47,43.6,47,46.6,49,46.6L49,46.6z"/>
	</g>
</g>
<g>
	<g>
		<path d="M52.5,48.8c0.5,0,0.5-0.8,0-0.8C52,48,52,48.8,52.5,48.8L52.5,48.8z"/>
	</g>
</g>
<g>
	<g>
		<path d="M54.2,54.2c0.5,0,0.5-0.8,0-0.8C53.7,53.4,53.7,54.2,54.2,54.2L54.2,54.2z"/>
	</g>
</g>
<path class="st11" d="M42.9,62.1c-1.5-0.4-2.1,0.1-1.7,1.7"/>
<path class="st11" d="M63.9,62.1c1.5-0.4,2.1,0.1,1.7,1.7"/>
<g>
	<g>
		<path class="st1" d="M24.3,95.1c-1.1,5-3.4,9.5-4.2,14.5c-0.8,5-1.3,10.3-1.1,15.4c0.4,8.9,12.5,12.4,19.8,12c5.8-0.3,5.8-9.3,0-9
			c-3.2,0.2-7-0.2-9.6-2.3c-1.4-1.2-1.3-1.2-1.2-3.3c0-1.8,0.1-3.6,0.2-5.3c0.4-7,3.1-12.8,4.7-19.5C34.3,91.8,25.6,89.4,24.3,95.1
			L24.3,95.1z"/>
	</g>
</g>
<g>
	<g>
		<path class="st12" d="M51.6,13.7c0-0.2,0-0.4,0-0.6c0-1.1,0-2.2,0-3.3c0-0.5,0-0.9-0.3-1.3C51,8.1,50.6,8.1,50.2,8
			c-3.5-0.5-7.1-0.8-10.6,0c-8.1,1.7-14.5,8.8-17.4,16.8c-2.9,8-2.9,16.9-1.8,25.4c0.3,2.8,0.8,5.6,0.6,8.5
			c-0.3,4.4-2.1,8.7-1.8,13.1c0.2,3.6,1.7,6.9,2.7,10.3c1.7,6.2,1.5,13-0.6,19.1l0.1,0.6c0.2,0.6,0.6,1.1,0.9,1.6
			c0.3,0.5,0.7,0.9,1,1.4c0.5,0.7,1,1.4,1.6,2c1,1,2.3,1.6,3.7,1.7c0.3,0,0.6,0,0.8-0.3l0.3-0.8l0.3-0.9c0.6-2.1,1-4.2,1.1-6.3
			c-0.2,0-0.4,0-0.5,0c0.2,0,0.4,0,0.5,0C31.4,96.5,31,92.6,30,89c-1-3.4-2.5-6.7-2.7-10.3c-0.3-4.4,1.5-8.7,1.8-13.1
			c0.2-2.8-0.3-5.7-0.6-8.5c-1.1-8.5-1.1-17.4,1.8-25.4c2.9-8,9.3-15.1,17.4-16.8c1.3-0.3,2.6-0.4,3.9-0.5L51.6,13.7z"/>
		<g>
			<path class="st12" d="M52,13.7c0-1.2,0.6-4.5-0.5-5.5c-1.6-1.4-6.6-1.1-8.3-1c-6.1,0.3-11.3,3.1-15.4,7.6
				c-10.4,11.5-8,26.3-7.2,40.4c0.3,4.6-1.1,8.7-1.6,13.1c-0.4,3.7,0.4,6.8,1.5,10.4c1.4,4.5,2.5,9,2.2,13.8c-0.2,2.7-1.9,6.5-1.6,9
				c0.2,1.9,5.2,8.8,8.1,7.3c2.3-1.2,2.2-6.4,2.4-8.6c0-0.2-0.2-0.4-0.4-0.4c-0.2,0-0.4,0-0.5,0c-0.5,0-0.5,0.8,0,0.8
				c0.2,0,0.4,0,0.5,0c0.2,0,0.4-0.2,0.4-0.4c0.2-3.9-0.1-7.5-1.1-11.3c-1.4-5.2-3.2-9.5-2.3-15c0.4-2.8,1.3-5.5,1.4-8.3
				c0.2-4-0.7-7.9-1-11.9c-1.4-16.1,3.6-37.4,23.1-38.8c0.2,0,0.4-0.2,0.4-0.4C52,14.2,52,13.9,52,13.7c0-0.5-0.8-0.5-0.8,0
				c0,0.5-7,2-8.2,2.6c-2.9,1.5-5.5,3.6-7.6,6.1c-4.9,5.7-7.1,12.9-7.7,20.3c-0.9,10,1.9,19.6,0,29.5c-0.7,3.5-0.9,6.7-0.1,10.3
				c0.4,1.6,5.1,17.5,3,17.5c-0.5,0-0.5,0.8,0,0.8c-0.3,0-0.3,6.2-1.3,7c-2.2,1.8-6.9-3.8-7.3-5.8c-0.4-2.2,1-5.2,1.3-7.5
				c0.3-2.4,0.3-4.8,0-7.2c-0.6-5.5-3.7-10.7-3.7-16.3c0-5.3,2.1-10.3,1.8-15.7c-0.7-11.5-2.8-22.6,2.6-33.5c2.3-4.7,6-9,10.7-11.5
				c3.2-1.7,6.6-2.3,10.2-2.3c1.2,0,4.4-0.2,5.2,0.5c1.4,1.1,1.1,3.7,1.2,5.3C51.2,14.1,52,14.1,52,13.7z"/>
		</g>
	</g>
</g>
<g>
	<g>
		<path class="st1" d="M39.8,136c1.3,0.4,2.8,0.1,3.9-0.7c0.7-0.5,1-1.3,0.5-2.1c-0.4-0.7-1.4-1-2.1-0.5c-0.6,0.4-1,0.5-1.6,0.4
			c-0.8-0.2-1.6,0.3-1.8,1C38.6,134.9,39.1,135.7,39.8,136L39.8,136z"/>
	</g>
</g>
<g>
	<g>
		<path class="st1" d="M73.6,97.5c1.5,6.7,4.2,12.5,4.7,19.5c0.1,1.5,0.1,3,0.2,4.4c0.1,2.5,0.5,2.7-1.2,4.2
			c-2.6,2.2-6.4,2.5-9.6,2.3c-5.8-0.3-5.8,8.7,0,9c7.3,0.4,19.4-3.1,19.8-12c0.2-4.8-0.2-9.8-0.9-14.5c-0.8-5.4-3.1-10.2-4.3-15.4
			C81,89.4,72.3,91.8,73.6,97.5L73.6,97.5z"/>
	</g>
</g>
<g>
	<g>
		<path class="st1" d="M66,133.1c-0.6,0.2-1,0.1-1.6-0.4c-0.7-0.5-1.7-0.1-2.1,0.5c-0.4,0.7-0.1,1.6,0.5,2.1
			c1.2,0.8,2.6,1.1,3.9,0.7c0.8-0.2,1.3-1.1,1-1.8C67.6,133.4,66.8,132.9,66,133.1L66,133.1z"/>
	</g>
</g>
<g>
	<path class="st13" d="M86.9,102.9l0-0.9c-0.1-0.1-0.1-0.3-0.2-0.4"/>
	<path class="st14" d="M89.4,72.2c0.3-4.5-1.8-8.8-2.1-13.3c-0.2-2.9,0.3-5.7,0.7-8.6c1.2-8.6,1.3-17.6-2.1-25.8
		C82.5,16.4,75,9.2,65.5,7.5c-4.1-0.8-8.3-0.5-12.4,0c-0.5,0.1-0.9,0.1-1.3,0.4c-0.3,0.3-0.4,0.8-0.4,1.3c0,1.1,0,2.3,0,3.4
		l-0.9,1.9c15.3-1.4,28.3,13.5,30,29.3c0.8,9.7-1.6,18.5-0.8,28.1c0,1.8,2,7.7,0.9,10.8C77.6,91,77,93.6,76.4,99.3
		c0,0.3,0,0.6,0,0.9c0.5,0,1.1,0,1.6,0c-0.5,0-1.1,0-1.6,0c0.1,1.8,0.6,3.6,1.1,5.3c0.2,0.6,0.3,1.2,0.5,1.7
		c0.1,0.3,0.2,0.6,0.2,0.9c0.1,0.3,0.1,0.5,0.3,0.7c0.1,0.1,0.1,0.1,0.2,0.2c0,0,0,0,0.1,0c0,0,0.1,0,0.1,0c1.6-0.1,3.1-0.4,4.6-1.2
		c1.2-0.7,2.3-1.8,2.9-3.1c0.3-0.6,0.5-1.3,0.6-2l-0.2-1.1c-2.3-6.1-2.5-12.8-0.5-19C87.4,79.1,89.2,75.8,89.4,72.2z"/>
</g>
<g>
	<path class="st15" d="M53.8,138c8.4,0,15.2-5.8,15.2-13.1H38.5C38.5,132.2,45.4,138,53.8,138z"/>
	<path class="st16" d="M38.5,124.9c0-3.2,6.8-5.8,15.2-5.8s15.2,2.6,15.2,5.8"/>
	<path class="st17" d="M69,124.9c0,3.2-6.8,5.8-15.2,5.8s-15.2-2.6-15.2-5.8"/>
	<ellipse class="st18" cx="45.9" cy="124.8" rx="6.5" ry="1.6"/>
	<ellipse class="st19" cx="53" cy="125.7" rx="4.4" ry="0.7"/>
	<ellipse class="st18" cx="55.7" cy="124.1" rx="6.9" ry="1.6"/>
	
		<ellipse transform="matrix(7.963657e-02 -0.9968 0.9968 7.963657e-02 -66.2076 177.2235)" class="st18" cx="62.9" cy="124.5" rx="1.2" ry="5.4"/>
	<ellipse class="st20" cx="45.1" cy="126" rx="0.7" ry="0.4"/>
	<ellipse class="st20" cx="52.3" cy="128.9" rx="0.7" ry="0.4"/>
	
		<ellipse transform="matrix(0.7071 -0.7071 0.7071 0.7071 -73.1215 78.4372)" class="st20" cx="58.1" cy="127.5" rx="0.4" ry="0.7"/>
	<ellipse transform="matrix(0.3928 -0.9196 0.9196 0.3928 -84.135 124.6392)" class="st20" cx="52.3" cy="126" rx="0.4" ry="0.7"/>
	
		<ellipse transform="matrix(0.1762 -0.9843 0.9843 0.1762 -71.8843 164.7187)" class="st20" cx="62.5" cy="125.3" rx="0.7" ry="0.4"/>
	<ellipse class="st20" cx="48" cy="128.9" rx="0.7" ry="0.4"/>
	<ellipse transform="matrix(0.7071 -0.7071 0.7071 0.7071 -76.1379 68.254)" class="st20" cx="44.3" cy="126" rx="0.7" ry="0.4"/>
	
		<ellipse transform="matrix(0.3928 -0.9196 0.9196 0.3928 -87.2303 122.8521)" class="st20" cx="49.4" cy="127.5" rx="0.4" ry="0.7"/>
	<ellipse transform="matrix(0.9507 -0.31 0.31 0.9507 -36.349 23.3262)" class="st20" cx="55.2" cy="126" rx="0.7" ry="0.4"/>
	<ellipse class="st20" cx="61" cy="127.5" rx="0.7" ry="0.4"/>
	<ellipse class="st20" cx="65.4" cy="126" rx="0.7" ry="0.4"/>
	<ellipse class="st20" cx="55.2" cy="128.9" rx="0.7" ry="0.4"/>
	
		<ellipse transform="matrix(0.3928 -0.9196 0.9196 0.3928 -88.9917 120.1843)" class="st21" cx="46.5" cy="127.5" rx="0.4" ry="0.7"/>
	<ellipse transform="matrix(0.7071 -0.7071 0.7071 0.7071 -71.671 79.0381)" class="st21" cx="59.6" cy="126" rx="0.7" ry="0.4"/>
	<ellipse transform="matrix(0.7071 -0.7071 0.7071 0.7071 -74.6448 71.8586)" class="st21" cx="49.4" cy="126" rx="0.7" ry="0.4"/>
	<ellipse class="st21" cx="54.5" cy="127.5" rx="0.7" ry="0.4"/>
	<ellipse transform="matrix(0.866 -0.5 0.5 0.866 -55.3722 48.316)" class="st21" cx="62.5" cy="127.5" rx="0.4" ry="0.7"/>
	
		<ellipse transform="matrix(0.7071 -0.7071 0.7071 0.7071 -74.1471 78.8621)" class="st21" cx="58.1" cy="128.9" rx="0.7" ry="0.4"/>
	<circle class="st22" cx="53.8" cy="124.2" r="1.5"/>
	<circle class="st22" cx="53.3" cy="126.4" r="0"/>
	<ellipse class="st22" cx="53.8" cy="124.6" rx="2.9" ry="1.1"/>
	<ellipse class="st22" cx="53" cy="123.9" rx="1.2" ry="1.1"/>
	<ellipse class="st22" cx="55" cy="123.9" rx="1.7" ry="1.1"/>
	<path class="st23" d="M45.5,127.5l-8.8-9.7c-0.2-0.2-0.2-0.5,0-0.7l0.3-0.3c0.2-0.2,0.5-0.2,0.7,0l8.8,9.7c0.2,0.2,0.2,0.5,0,0.7
		l-0.3,0.3C46,127.7,45.6,127.7,45.5,127.5z"/>
	<ellipse transform="matrix(0.8286 -0.5598 0.5598 0.8286 -63.7858 46.5042)" class="st24" cx="44.1" cy="127.4" rx="1" ry="0.5"/>
	
		<ellipse transform="matrix(0.7071 -0.7071 0.7071 0.7071 -69.6258 78.1735)" class="st21" cx="59.6" cy="123.1" rx="0.7" ry="0.4"/>
	<ellipse class="st20" cx="60" cy="124" rx="0.7" ry="0.4"/>
	
		<ellipse transform="matrix(0.3928 -0.9196 0.9196 0.3928 -74.8748 135.7634)" class="st21" cx="65.4" cy="124.6" rx="0.4" ry="0.7"/>
	<ellipse class="st20" cx="47.7" cy="124.7" rx="0.7" ry="0.4"/>
	
		<ellipse transform="matrix(0.1762 -0.9843 0.9843 0.1762 -84.7947 146.3906)" class="st21" cx="45.1" cy="123.9" rx="0.4" ry="0.7"/>
	
		<ellipse transform="matrix(0.2786 -0.9604 0.9604 0.2786 -73.3631 150.0454)" class="st21" cx="63.2" cy="123.9" rx="0.7" ry="0.4"/>
</g>
</svg>
