<?xml version="1.0" encoding="utf-8"?>
<!-- Generator: Adobe Illustrator 21.1.0, SVG Export Plug-In . SVG Version: 6.00 Build 0)  -->
<svg version="1.1" id="Layer_1" xmlns="http://www.w3.org/2000/svg" xmlns:xlink="http://www.w3.org/1999/xlink" x="0px" y="0px"
	 viewBox="0 0 50 50" style="enable-background:new 0 0 50 50;" xml:space="preserve">
<style type="text/css">
	.st0{fill:#8FFF78;}
	.st1{fill:#FFFFFF;}
	.st2{font-family:'ChalkboardSE-Regular';}
	.st3{font-size:34.0632px;}
	.st4{fill:#1BBC26;}
	.st5{fill:#9EFF8D;}
	.st6{fill:#FFFFFF;stroke:#FFFFFF;stroke-width:0.25;stroke-miterlimit:10;}
</style>
<g>
	<path class="st0" d="M24.2,42.8c-0.5-0.5-1.1-1-1.6-1.5c-2.1-2-4.2-4-6-6.2c-3.4-4.1-5.9-8.8-7.5-13.9c-0.7-2.2-1.1-4.5-0.8-6.8
		c0.4-2.3,1.7-4.5,3.8-5.5c2.6-1.2,5.6-0.1,8.1,1.1c2,1,4.1,2.7,3.9,4.9h1.6c-0.2-2.2,1.9-3.9,3.9-4.9c2.5-1.3,5.5-2.3,8.1-1.1
		c2.1,0.9,3.4,3.2,3.8,5.5c0.4,2.3-0.1,4.6-0.8,6.8c-1.5,5.1-4.1,9.8-7.5,13.9c-1.9,2.3-4.1,4.4-6.3,6.4c-0.5,0.4-0.9,0.9-1.4,1.3"
		/>
	<g>
		<path class="st0" d="M25.3,41.7c-4.6-4.2-8.9-8.5-11.9-14c-1.4-2.7-2.7-5.7-3.4-8.6c-0.9-4.3-0.2-9.8,6.5-8.9
			c2.1,0.3,5.8,2.4,6,4.8c0.1,0.8,0.6,1.5,1.5,1.5c0.5,0,1.1,0,1.6,0c0.9,0,1.4-0.7,1.5-1.5c0.2-2.1,4-4.7,6-4.8
			c2,0.8,4.1,1.5,6.1,2.3c0.3,1.2,0.5,2.4,0.8,3.6c0.1,3.6-1.8,7.9-3.4,11c-3,5.8-7.5,10.3-12.2,14.7c-1.4,1.3,0.7,3.4,2.1,2.1
			c5-4.6,9.6-9.3,12.7-15.3c2.4-4.6,5-10.7,3.3-15.9c-2.9-8.9-17.6-6.3-18.4,2.4c0.5-0.5,1-1,1.5-1.5c-0.5,0-1.1,0-1.6,0
			c0.5,0.5,1,1,1.5,1.5C24.7,5.9,9.4,3.7,7,13.3c-1.3,5.3,1.4,11.4,3.8,16c3.1,5.7,7.6,10.2,12.3,14.6C24.6,45.1,26.7,43,25.3,41.7
			L25.3,41.7z"/>
	</g>
</g>
<g>
	<text transform="matrix(1.1183 0 0 1 13.4663 36.8516)" class="st1 st2 st3">V</text>
</g>
<g>
	<g>
		<path class="st4" d="M24.9,44.5c1.9,0,1.9-3,0-3C23,41.5,23,44.5,24.9,44.5L24.9,44.5z"/>
	</g>
</g>
<g>
	<g>
		<path class="st0" d="M23.4,42.2c0,0.3,0,0.7,0,1c0,0.8,0.7,1.5,1.5,1.5c0.8,0,1.5-0.7,1.5-1.5c0-0.3,0-0.7,0-1
			c0-0.8-0.7-1.5-1.5-1.5C24.1,40.7,23.4,41.3,23.4,42.2L23.4,42.2z"/>
	</g>
</g>
<g>
	<g>
		<path class="st1" d="M32.9,23.1c1.5-1,3.1-1.7,4.2-3.2c2-2.8,1.8-6.3,1.5-9.6c0-0.3-0.2-0.4-0.5-0.4c-2.4,0.5-4.8,1.1-6.7,2.8
			c-1.2,1.1-1.5,2.2-2,3.7c-0.2,0.5,0.6,0.7,0.7,0.2c0.6-1.8,1.2-3.1,2.9-4.2c1.1-0.7,2.3-1.1,3.5-1.4c1.6-0.4,1.4,0.6,1.4,2.1
			c0,2.7-0.5,5.8-2.7,7.5c-0.9,0.7-1.9,1.2-2.8,1.8C32.2,22.7,32.5,23.4,32.9,23.1L32.9,23.1z"/>
	</g>
</g>
<g>
	<g>
		<path class="st1" d="M30.3,16.5c1.7-2.7,4.3-4.6,7.5-5.3c0.5-0.1,0.3-0.8-0.2-0.7c-3.3,0.8-6.1,2.8-7.9,5.7
			C29.4,16.6,30.1,17,30.3,16.5L30.3,16.5z"/>
	</g>
</g>
<g>
	<g>
		<path class="st1" d="M33.4,12.1c-0.9,0-1.5,0.9-2.1,1.4c-0.3,0.3,0.2,0.9,0.5,0.5c0.4-0.4,1-1.2,1.5-1.2
			C33.9,12.9,33.9,12.2,33.4,12.1L33.4,12.1z"/>
	</g>
</g>
<g>
	<g>
		<path class="st1" d="M36.8,11.4c-1.9,1.4-3.3,3.2-4.3,5.3c-0.2,0.4,0.4,0.8,0.6,0.4c0.9-2,2.3-3.7,4.1-5.1
			C37.5,11.7,37.2,11.1,36.8,11.4L36.8,11.4z"/>
	</g>
</g>
<g>
	<g>
		<path class="st1" d="M33.4,16.4c0.6-1.7,2.2-3.2,3.7-4.2c0.4-0.3,0-0.9-0.4-0.6c-1.7,1.1-3.4,2.7-4,4.7
			C32.6,16.6,33.3,16.8,33.4,16.4L33.4,16.4z"/>
	</g>
</g>
<g>
	<g>
		<path class="st1" d="M36.7,11.5c-2.1,1.1-3.5,2.9-4.4,5.1c-0.2,0.4,0.5,0.6,0.7,0.2c0.8-2,2.1-3.6,4-4.7
			C37.5,11.9,37.1,11.3,36.7,11.5L36.7,11.5z"/>
	</g>
</g>
<g>
	<g>
		<path class="st1" d="M35.1,15.1c0.2-0.1,0.5-0.2,0.7-0.4c0.4-0.2,0.1-0.9-0.4-0.6c-0.2,0.1-0.5,0.2-0.7,0.4
			C34.3,14.6,34.7,15.3,35.1,15.1L35.1,15.1z"/>
	</g>
</g>
<g>
	<g>
		<path class="st1" d="M32.6,17.1c0.6-1.2,1.4-2.3,2.4-3.2c0.4-0.3-0.2-0.8-0.5-0.5c-1.1,0.9-1.9,2-2.6,3.3
			C31.7,17.1,32.4,17.5,32.6,17.1L32.6,17.1z"/>
	</g>
</g>
<g>
	<g>
		<path class="st1" d="M33.4,15.5c0.6-0.9,1.3-1.5,2.2-2c0.4-0.2,0-0.9-0.4-0.6c-1,0.6-1.8,1.3-2.4,2.3
			C32.5,15.5,33.2,15.9,33.4,15.5L33.4,15.5z"/>
	</g>
</g>
<g>
	<g>
		<path class="st1" d="M37,11.7c0.5,0,0.5-0.8,0-0.8C36.6,10.9,36.6,11.7,37,11.7L37,11.7z"/>
	</g>
</g>
<g>
	<g>
		<path class="st1" d="M32.8,23.3c5.3-0.9,6.8-6.5,5.9-11.2c-0.1-0.5-0.8-0.3-0.7,0.2c0.8,4.3-0.4,9.4-5.4,10.2
			C32.1,22.7,32.3,23.4,32.8,23.3L32.8,23.3z"/>
	</g>
</g>
<g>
	<g>
		<path class="st1" d="M37.7,10.3c-3.6-0.5-8,2.3-8.2,6.1c0,0.5,0.7,0.5,0.8,0c0.2-3.4,4.3-5.8,7.4-5.4
			C38.2,11.1,38.2,10.3,37.7,10.3L37.7,10.3z"/>
	</g>
</g>
<g>
	<g>
		<path class="st1" d="M35.8,11.2c0.8-0.4,1.6-0.5,2.4-0.5c0.5,0,0.5-0.7,0-0.8c-1-0.1-1.9,0.1-2.8,0.6C35,10.8,35.4,11.5,35.8,11.2
			L35.8,11.2z"/>
	</g>
</g>
<g>
	<g>
		<path class="st1" d="M37,10.1c-0.9,0.1-1.8,0.3-2.7,0.8c-0.4,0.2,0,0.9,0.4,0.6c0.7-0.4,1.5-0.6,2.3-0.7
			C37.5,10.8,37.5,10,37,10.1L37,10.1z"/>
	</g>
</g>
<g>
	<g>
		<path class="st0" d="M23.4,43.5C23.4,43.5,23.4,43.5,23.4,43.5c0.1-0.1,0.2-0.1,0.3-0.2c0,0,0,0,0,0c-0.5,0.2-0.3,0.9,0.2,0.7
			c0.2-0.1,0.3-0.1,0.3-0.3C24.3,43.2,23.5,43,23.4,43.5L23.4,43.5z"/>
	</g>
</g>
<g>
	<g>
		<path class="st0" d="M23.4,43.9c0.2,0.2,0.3,0.3,0.5,0.5c0.4,0.2,0.8-0.3,0.5-0.6c-0.2-0.1-0.3-0.3-0.5-0.4
			C23.5,43.2,23,43.7,23.4,43.9c0.3,0.4,0.7,0.8,1.3,0.8c0.5,0,0.5-0.7,0-0.8c-0.3,0-0.6-0.3-0.8-0.5c-0.2,0.2-0.3,0.4-0.5,0.6
			c0.1,0.1,0.3,0.2,0.4,0.3c0.2-0.2,0.3-0.4,0.5-0.6c-0.1-0.1-0.2-0.2-0.3-0.3C23.6,43,23.1,43.5,23.4,43.9L23.4,43.9z"/>
	</g>
</g>
<g>
	<g>
		<path class="st0" d="M28.7,16.2c0,0.4,0.1,0.9,0.2,1.3c0.1,0.5,0.8,0.3,0.7-0.2c-0.1-0.4-0.2-0.7-0.2-1.1
			C29.4,15.7,28.7,15.7,28.7,16.2L28.7,16.2z"/>
	</g>
</g>
<g>
	<g>
		<path class="st5" d="M28.7,16.2c0,0.4,0.1,0.8,0.2,1.1c0.2,0.4,0.9,0.3,0.7-0.2c-0.1-0.3-0.2-0.6-0.2-0.9
			C29.5,15.8,28.7,15.7,28.7,16.2L28.7,16.2z"/>
	</g>
</g>
<g>
	<g>
		<path class="st0" d="M28.8,16.1c0,0.4,0,0.8,0.1,1.2c0.1,0.5,0.8,0.3,0.7-0.2c-0.1-0.3-0.1-0.6-0.1-1
			C29.6,15.6,28.9,15.6,28.8,16.1L28.8,16.1z"/>
	</g>
</g>
<g>
	<g>
		<path class="st0" d="M30.6,16.2c-0.3,0.4-0.6,0.7-0.8,1.1c-0.2,0.4,0.5,0.8,0.6,0.4c0.2-0.4,0.4-0.7,0.7-1
			C31.4,16.4,30.9,15.9,30.6,16.2L30.6,16.2z"/>
	</g>
</g>
<rect x="35.7" y="13.6" class="st6" width="2.6" height="2.6"/>
<rect x="36.9" y="10.9" class="st6" width="1.3" height="1.5"/>
<rect x="36.2" y="12.4" class="st6" width="2.3" height="1.5"/>
<rect x="35" y="13.6" class="st6" width="0.9" height="0.5"/>
<rect x="35.7" y="12.9" class="st6" width="0.5" height="0.7"/>
<rect x="36.2" y="16.2" class="st6" width="1.4" height="1.4"/>
<rect x="36.6" y="16.4" class="st6" width="1.5" height="1.2"/>
<rect x="35.1" y="17.6" class="st6" width="2.2" height="1.8"/>
<rect x="35.7" y="16.5" class="st6" width="0.9" height="2.1"/>
<rect x="34" y="19.4" class="st6" width="2.6" height="0.8"/>
<rect x="34.5" y="18.7" class="st6" width="0.9" height="0.9"/>
<rect x="34" y="19.8" class="st6" width="1.9" height="1.1"/>
<rect x="33.1" y="20.6" class="st6" width="1.9" height="1.3"/>
<ellipse class="st1" cx="35.1" cy="11.3" rx="0.6" ry="0.4"/>
<ellipse class="st1" cx="34.1" cy="12" rx="0.8" ry="0.3"/>
<ellipse class="st1" cx="33.1" cy="12.3" rx="1.2" ry="0.3"/>
<ellipse class="st1" cx="32.5" cy="12.9" rx="1" ry="0.4"/>
<ellipse class="st1" cx="31.3" cy="14" rx="0.6" ry="0.8"/>
<ellipse class="st1" cx="32.3" cy="13" rx="0.7" ry="0.5"/>
<ellipse class="st1" cx="30.7" cy="14.7" rx="0.7" ry="0.3"/>
<ellipse class="st1" cx="31.4" cy="14" rx="0.5" ry="0.4"/>
<ellipse class="st1" cx="30.4" cy="15.5" rx="0.3" ry="0.6"/>
<ellipse class="st1" cx="36.2" cy="11.1" rx="1" ry="0.2"/>
<ellipse class="st1" cx="37.1" cy="10.9" rx="1" ry="0.4"/>
<ellipse class="st1" cx="36.6" cy="10.9" rx="1.3" ry="0.3"/>
<ellipse class="st1" cx="34.9" cy="11.5" rx="1" ry="0.2"/>
<ellipse class="st1" cx="35.3" cy="11.1" rx="0.5" ry="0.6"/>
<circle class="st1" cx="34.6" cy="11.6" r="0.7"/>
<ellipse class="st1" cx="33.6" cy="12.1" rx="0.6" ry="0.5"/>
</svg>
